<?xml version="1.0" standalone="no"?>
<!DOCTYPE svg PUBLIC "-//W3C//DTD SVG 20010904//EN"
 "http://www.w3.org/TR/2001/REC-SVG-20010904/DTD/svg10.dtd">
<svg version="1.0" xmlns="http://www.w3.org/2000/svg"
 width="166.000000pt" height="166.000000pt" viewBox="0 0 166.000000 166.000000"
 preserveAspectRatio="xMidYMid meet">
<metadata>
Created by potrace 1.14, written by Peter Selinger 2001-2017
</metadata>
<g transform="translate(0.000000,166.000000) scale(0.100000,-0.100000)"
fill="#000000" stroke="none">
<path d="M0 830 l0 -830 830 0 830 0 0 830 0 830 -830 0 -830 0 0 -830z m1605
0 l0 -775 -775 0 -775 0 -3 765 c-1 421 0 771 3 778 3 10 164 12 777 10 l773
-3 0 -775z"/>
<path d="M1110 855 l0 -555 160 0 160 0 0 555 0 555 -160 0 -160 0 0 -555z"/>
<path d="M640 770 l0 -490 145 0 145 0 0 490 0 490 -145 0 -145 0 0 -490z"/>
<path d="M220 585 l0 -315 140 0 140 0 0 315 0 315 -140 0 -140 0 0 -315z"/>
</g>
</svg>
